# xmcd
#
# Track frame offsets:
#	150
#	16725
#	36735
#	47259
#	59956
#	82094
#	94734
#	113237
#	131428
#	147559
#
# Disc length: 2187 seconds
#
# Revision: 1
# Processed by: cddbd v1.5.1PL0 Copyright (c) Steve Scherf et al.
# Submitted via: audiograbber 1.83.01
#
DISCID=8f08890a
DTITLE=CAMBI - Lipa slika - CAMBI
DYEAR=1900
DGENRE=
TTITLE0=More
TTITLE1=Marjane
TTITLE2=Bas si luda bila
TTITLE3=Salturice mala
TTITLE4=Lipa slika
TTITLE5=Pisnik
TTITLE6=Mrvice moja
TTITLE7=Oces li mi ljubav biti
TTITLE8=Virnost
TTITLE9=Rusulice moja
EXTD=
EXTT0=
EXTT1=
EXTT2=
EXTT3=
EXTT4=
EXTT5=
EXTT6=
EXTT7=
EXTT8=
EXTT9=
PLAYORDER=
